<?xml version="1.0" standalone="no"?>
<!DOCTYPE svg PUBLIC "-//W3C//DTD SVG 20010904//EN"
 "http://www.w3.org/TR/2001/REC-SVG-20010904/DTD/svg10.dtd">
<svg version="1.0" xmlns="http://www.w3.org/2000/svg"
 width="300.000000pt" height="206.000000pt" viewBox="0 0 300.000000 206.000000"
 preserveAspectRatio="xMidYMid meet">
<metadata>
Created by potrace 1.10, written by Peter Selinger 2001-2011
</metadata>
<g transform="translate(0.000000,206.000000) scale(0.100000,-0.100000)"
fill="#000000" stroke="none">
<path d="M2012 1694 c-31 -25 -62 -71 -62 -94 0 -20 15 -9 39 29 12 21 36 46
52 55 16 10 27 22 24 27 -9 14 -17 11 -53 -17z"/>
<path d="M2020 1629 c-30 -41 -18 -48 20 -11 34 34 37 42 16 42 -8 0 -24 -14
-36 -31z"/>
<path d="M2175 1630 c-3 -5 -22 -10 -42 -10 -26 0 -42 -8 -64 -31 -36 -38
-101 -168 -92 -183 5 -8 3 -8 -8 -1 -9 7 -105 9 -287 5 l-274 -5 -29 -33 c-26
-29 -29 -39 -28 -95 1 -34 4 -48 6 -32 13 114 14 116 46 136 29 17 52 19 242
19 116 0 216 -4 223 -8 10 -7 9 -15 -4 -41 -9 -18 -14 -35 -11 -37 3 -3 11 7
19 23 8 17 23 29 38 31 14 2 33 11 43 19 9 9 17 13 17 8 0 -13 29 16 45 46 8
16 22 43 31 60 12 23 19 28 25 18 6 -10 10 -5 15 18 11 53 87 69 121 24 7 -9
13 -12 13 -8 0 5 7 2 15 -7 18 -17 19 -72 4 -130 -6 -22 -14 -55 -18 -72 -8
-30 2 -64 18 -64 4 0 18 49 31 110 29 139 24 162 -43 198 -36 18 -45 28 -37
36 8 8 16 5 31 -13 12 -14 19 -18 19 -9 0 31 -50 52 -65 28z"/>
<path d="M2393 1518 c1 -29 -3 -68 -7 -85 -13 -51 9 -40 24 11 12 45 6 126
-10 126 -4 0 -8 -24 -7 -52z"/>
<path d="M2343 1519 c3 -12 2 -32 -3 -45 -6 -14 -6 -26 0 -29 14 -9 32 45 25
72 -3 13 -10 23 -16 23 -7 0 -9 -9 -6 -21z"/>
<path d="M1410 1365 c-7 -9 -11 -18 -8 -20 5 -5 68 23 68 31 0 11 -49 2 -60
-11z"/>
<path d="M1880 1305 c0 -9 132 -66 138 -60 9 9 -21 26 -36 20 -7 -3 -10 -1 -7
4 8 14 -36 41 -67 41 -16 0 -28 -2 -28 -5z"/>
<path d="M2035 1269 c-9 -14 25 -38 44 -31 10 4 13 1 8 -11 -3 -9 -3 -17 2
-17 5 0 11 9 14 20 4 15 -2 24 -23 35 -35 18 -37 18 -45 4z"/>
<path d="M2204 1245 c15 -23 15 -24 -1 -18 -12 4 -11 0 5 -11 12 -10 20 -21
17 -26 -3 -4 2 -14 11 -21 14 -11 18 -10 30 6 25 34 16 53 -35 78 -44 22 -46
22 -27 -8z"/>
<path d="M1996 1215 c10 -8 14 -15 7 -15 -6 0 -25 -12 -42 -26 -39 -33 -42
-80 -8 -112 31 -29 72 -28 102 3 27 26 30 41 15 79 -5 15 -6 28 0 31 12 8 100
-15 100 -26 0 -5 6 -9 14 -9 10 0 16 -19 21 -66 13 -117 -8 -174 -73 -201 -45
-19 -52 -28 -52 -73 0 -38 -23 -80 -43 -80 -7 0 -39 27 -71 60 -87 87 -110 94
-308 86 -90 -4 -180 -8 -200 -9 -45 -1 -40 -17 5 -17 33 0 33 0 35 -56 2 -49
-1 -58 -27 -85 -29 -28 -32 -29 -133 -30 -57 -1 -157 -3 -222 -5 -117 -3 -120
-4 -160 -36 -23 -17 -53 -46 -69 -64 -15 -18 -40 -39 -56 -47 l-29 -14 -6 45
c-3 25 -6 57 -6 73 0 24 -5 30 -38 39 -21 5 -49 21 -62 35 -23 25 -25 35 -32
213 -7 160 -6 193 8 230 11 30 23 44 42 49 33 10 601 7 610 -2 4 -3 9 -63 13
-133 7 -147 8 -143 14 31 l4 127 -314 0 c-205 0 -322 -4 -338 -11 -51 -23 -57
-51 -57 -256 0 -103 5 -204 10 -224 13 -46 40 -71 88 -78 l37 -6 3 -65 c3 -83
9 -110 25 -110 7 0 44 31 83 70 111 112 87 104 347 110 l229 5 29 33 c26 29
29 40 29 97 l0 65 159 0 c88 0 171 -4 184 -9 13 -5 63 -46 111 -90 102 -95
116 -95 116 -2 0 76 8 101 32 101 29 0 76 27 89 52 13 25 19 128 12 210 l-5
56 -62 17 c-33 9 -72 16 -84 16 -13 -1 -35 8 -49 19 -14 11 -30 20 -36 20 -6
0 -2 -7 9 -15z m46 -62 c22 -20 23 -51 1 -75 -33 -36 -93 -13 -93 37 0 49 55
72 92 38z"/>
<path d="M1541 1161 c-27 -37 -26 -61 0 -95 16 -21 28 -26 56 -24 66 4 97 82
50 126 -34 32 -81 29 -106 -7z m91 -8 c34 -31 11 -93 -35 -93 -27 0 -57 28
-57 53 0 48 56 73 92 40z"/>
<path d="M1752 1167 c-63 -67 23 -166 95 -109 32 25 37 61 13 100 -25 41 -74
45 -108 9z m95 -23 c15 -24 15 -29 2 -53 -29 -52 -99 -35 -99 24 0 57 65 77
97 29z"/>
<path d="M1035 1002 c-30 -6 -65 -43 -65 -67 0 -36 37 -75 71 -75 43 0 83 42
74 78 -12 47 -43 72 -80 64z m53 -40 c18 -23 15 -49 -8 -72 -24 -24 -38 -25
-68 -4 -30 20 -30 68 0 88 25 18 56 13 76 -12z"/>
<path d="M791 991 c-7 -5 -16 -30 -18 -55 -5 -38 -2 -49 13 -61 29 -22 77 -18
102 8 28 29 28 57 1 91 -21 27 -69 35 -98 17z m77 -17 c48 -33 8 -117 -48 -99
-45 14 -51 87 -7 105 30 12 30 12 55 -6z"/>
<path d="M1191 974 c-12 -15 -21 -34 -21 -44 0 -10 9 -29 21 -44 41 -52 129
-20 129 47 0 64 -89 92 -129 41z m101 -19 c25 -55 -39 -109 -82 -70 -22 20
-26 65 -8 83 7 7 27 12 45 12 26 0 36 -6 45 -25z"/>
</g>
</svg>
