<?xml version="1.0" standalone="no"?>
<!DOCTYPE svg PUBLIC "-//W3C//DTD SVG 20010904//EN"
 "http://www.w3.org/TR/2001/REC-SVG-20010904/DTD/svg10.dtd">
<svg version="1.0" xmlns="http://www.w3.org/2000/svg"
 width="612.000000pt" height="306.000000pt" viewBox="0 0 612.000000 306.000000"
 preserveAspectRatio="xMidYMid meet">
<metadata>
Created by potrace 1.16, written by Peter Selinger 2001-2019
</metadata>
<g transform="translate(0.000000,306.000000) scale(0.100000,-0.100000)"
fill="#000000" stroke="none">
<path d="M2410 2729 c-19 -5 -66 -7 -103 -4 -38 3 -67 2 -64 -2 2 -5 -7 -18
-20 -30 -13 -12 -23 -19 -23 -15 0 4 -5 0 -10 -8 -6 -9 -10 -182 -10 -437 l0
-423 -27 0 c-115 0 -814 -43 -835 -51 -15 -6 -29 -17 -32 -25 -3 -8 -28 -234
-56 -502 -27 -268 -52 -508 -56 -534 l-6 -48 66 0 c37 0 74 -4 84 -10 22 -12
833 -79 1022 -84 160 -5 290 -16 290 -25 0 -3 -57 -24 -125 -45 -69 -22 -125
-44 -125 -49 0 -5 16 -6 38 -2 116 22 -65 -30 -509 -144 -215 -56 -229 -58
-229 -36 0 10 -10 15 -30 15 -23 0 -30 -4 -30 -20 0 -26 -11 -26 -235 4 -286
39 -717 88 -723 81 -3 -3 1 -5 9 -5 16 0 284 -34 659 -85 146 -19 280 -35 297
-35 29 0 183 39 812 204 95 25 174 46 176 46 2 0 21 17 44 37 l40 38 5 95 c4
65 3 87 -4 70 -7 -20 -9 -14 -5 25 45 581 61 745 66 700 4 -28 5 -1 4 60 -2
85 -1 98 5 60 6 -38 7 -25 4 50 -2 55 0 127 5 160 13 89 14 89 -159 81 -80 -4
-184 -9 -232 -12 l-88 -7 0 402 0 401 1275 0 1275 0 0 -409 0 -410 -182 -3
c-164 -3 -186 -5 -210 -23 -15 -11 -29 -25 -32 -32 -3 -7 -6 -136 -7 -288 l-1
-275 -833 0 -834 0 -3 22 c-2 13 -11 -78 -20 -201 -10 -124 -15 -227 -13 -230
3 -2 5 12 5 32 l0 37 305 0 c168 0 305 -3 305 -7 0 -5 38 -8 85 -8 47 0 85 3
85 8 0 4 34 7 75 7 41 0 75 -3 75 -7 0 -5 38 -8 85 -8 47 0 85 3 85 8 0 4 135
7 300 7 l300 0 0 -159 c0 -155 1 -161 24 -188 l24 -28 446 -3 446 -3 0 -26 c0
-14 3 -24 6 -21 3 3 -4 169 -15 369 -25 437 -34 560 -39 537 -2 -9 6 -174 17
-365 12 -191 21 -363 21 -381 l0 -32 -432 2 -433 3 0 585 0 585 445 0 445 0 3
-162 c2 -153 1 -162 -17 -168 -11 -3 -23 -15 -26 -25 -6 -17 42 -941 49 -965
2 -5 3 -14 2 -18 -3 -22 41 -25 194 -11 207 18 208 18 217 52 6 25 -31 792
-43 889 -8 66 -21 73 -128 73 -51 0 -114 3 -140 6 l-46 7 0 171 c0 242 7 236
-272 236 l-198 0 0 428 c0 258 -4 433 -10 442 -5 8 -10 12 -10 8 0 -4 -10 3
-23 15 -13 12 -22 24 -21 27 5 10 -51 11 -1266 15 -699 2 -1210 0 -1230 -6z
m285 -1066 c-24 -299 -94 -1015 -99 -1020 -7 -7 -1343 89 -1357 98 -6 3 8 188
37 482 l47 476 51 5 c28 3 274 13 546 21 272 9 506 17 520 19 14 2 78 4 144 5
l118 1 -7 -87z m2745 -307 c0 -10 25 -15 98 -19 87 -5 98 -4 112 13 12 15 22
17 50 12 32 -7 35 -11 41 -52 15 -94 53 -890 43 -900 -12 -12 -331 -43 -361
-35 -16 4 -24 15 -27 38 -10 61 -56 926 -50 941 8 21 94 23 94 2z m-1028 -373
c2 -54 2 -104 0 -110 -3 -10 -181 -13 -844 -13 l-840 0 7 103 c4 56 9 105 12
110 2 4 377 7 833 7 l829 0 3 -97z"/>
<path d="M1090 609 c-32 -8 -137 -28 -317 -60 -70 -13 -98 -29 -50 -29 12 0
92 -7 177 -15 85 -8 281 -26 435 -40 154 -14 346 -32 426 -40 l147 -15 232 45
c128 25 235 46 237 49 4 4 -343 40 -592 61 -33 3 -136 12 -230 21 -93 8 -215
19 -270 24 -118 11 -148 11 -195 -1z"/>
</g>
</svg>
