<?xml version="1.0" encoding="UTF-8"?>
<!DOCTYPE svg PUBLIC "-//W3C//DTD SVG 1.1//EN" "http://www.w3.org/Graphics/SVG/1.1/DTD/svg11.dtd">
<svg xmlns="http://www.w3.org/2000/svg" version="1.1" width="1201px" height="1307px" style="shape-rendering:geometricPrecision; text-rendering:geometricPrecision; image-rendering:optimizeQuality; fill-rule:evenodd; clip-rule:evenodd" xmlns:xlink="http://www.w3.org/1999/xlink">
<g><path style="opacity:0.994" fill="#000000" d="M 1046.5,-0.5 C 1047.17,-0.5 1047.83,-0.5 1048.5,-0.5C 1097.91,97.3221 1148.57,194.322 1200.5,290.5C 1200.5,292.833 1200.5,295.167 1200.5,297.5C 1177.9,342.7 1153.73,387.033 1128,430.5C 1112.25,460.991 1096.25,491.325 1080,521.5C 1009,651.5 938,781.5 867,911.5C 856.504,930.496 845.504,949.163 834,967.5C 829.805,970.547 826.805,969.547 825,964.5C 802.298,918.765 780.965,872.432 761,825.5C 735.938,770.826 710.771,716.159 685.5,661.5C 720.007,598.792 753.507,535.459 786,471.5C 870.603,319.968 953.937,167.634 1036,14.5C 1039.02,9.12108 1042.52,4.12108 1046.5,-0.5 Z"/></g>
<g><path style="opacity:0.994" fill="#000000" d="M 796.5,1306.5 C 711.5,1306.5 626.5,1306.5 541.5,1306.5C 538.172,1301.85 535.339,1296.85 533,1291.5C 467.387,1148 401.387,1004.66 335,861.5C 297.473,778.584 260.139,695.584 223,612.5C 189.667,535.833 156.333,459.167 123,382.5C 81.9077,381.264 40.741,380.597 -0.5,380.5C -0.5,379.833 -0.5,379.167 -0.5,378.5C 70.4699,258.003 141.303,137.336 212,16.5C 215.333,11.8333 218.667,7.16667 222,2.5C 222.925,3.04651 223.758,3.71317 224.5,4.5C 275.951,117.739 328.784,230.405 383,342.5C 488.452,576.738 594.452,810.738 701,1044.5C 738.727,1124.95 776.727,1205.29 815,1285.5C 816.864,1290.09 818.53,1294.76 820,1299.5C 820.781,1300.94 820.614,1302.28 819.5,1303.5C 811.762,1304.93 804.096,1305.93 796.5,1306.5 Z"/></g>
</svg>
