<?xml version="1.0" standalone="no"?>
<!DOCTYPE svg PUBLIC "-//W3C//DTD SVG 20010904//EN"
 "http://www.w3.org/TR/2001/REC-SVG-20010904/DTD/svg10.dtd">
<svg version="1.0" xmlns="http://www.w3.org/2000/svg"
 width="800.000000pt" height="800.000000pt" viewBox="0 0 800.000000 800.000000"
 preserveAspectRatio="xMidYMid meet">

<g transform="translate(0.000000,800.000000) scale(0.100000,-0.100000)"
fill="#000000" stroke="none">
<path d="M6680 7583 c-24 -43 -96 -177 -160 -298 -137 -257 -183 -340 -355
-650 -166 -299 -282 -510 -335 -610 -24 -44 -60 -109 -81 -145 -43 -76 -81
-147 -231 -440 -61 -118 -129 -246 -151 -284 l-39 -68 55 -117 c31 -64 92
-199 137 -301 45 -102 85 -189 89 -195 4 -5 15 -29 25 -53 22 -58 103 -236
182 -401 64 -132 65 -134 83 -115 11 10 86 141 168 289 165 298 160 289 363
665 79 146 155 288 170 315 15 28 64 115 107 195 44 80 105 190 135 245 30 55
90 168 133 250 43 83 87 163 98 178 37 54 247 449 247 467 0 18 -1 20 -137
270 -50 91 -170 323 -268 515 -98 193 -181 354 -185 358 -4 5 -27 -27 -50 -70z"/>
<path d="M3448 7513 c-42 -71 -109 -186 -151 -258 -41 -71 -108 -186 -149
-255 -41 -69 -86 -145 -100 -170 -14 -25 -55 -94 -91 -155 -123 -208 -223
-380 -256 -437 l-32 -58 238 -2 238 -3 17 -35 c23 -47 122 -273 146 -335 11
-27 34 -81 52 -120 18 -38 66 -149 107 -245 41 -96 83 -193 93 -215 10 -22 37
-83 60 -135 59 -134 75 -169 140 -310 32 -69 94 -206 138 -305 44 -99 100
-223 125 -275 99 -211 370 -802 452 -985 35 -77 91 -198 125 -270 34 -71 80
-170 102 -220 22 -49 46 -100 54 -113 l14 -22 536 0 c475 0 535 2 541 16 3 9
-43 116 -112 257 -120 245 -312 652 -390 827 -37 83 -340 750 -365 805 -32 69
-254 555 -310 680 -37 83 -139 305 -225 495 -87 190 -172 379 -190 420 -18 41
-47 107 -64 145 -18 39 -36 79 -41 90 -5 11 -48 101 -95 200 -150 311 -375
792 -375 800 0 3 -26 60 -58 127 -32 68 -64 138 -71 156 -8 17 -17 32 -21 32
-4 0 -41 -57 -82 -127z"/>

</g>
</svg>
